<mxfile host="65bd71144e" pages="2">
    <diagram id="6G3r_QqAA1fNAYQaFEHI" name="purchase-groceries-online">
        <mxGraphModel dx="5051" dy="1600" grid="1" gridSize="10" guides="1" tooltips="1" connect="1" arrows="1" fold="1" page="1" pageScale="1" pageWidth="2336" pageHeight="1654" math="0" shadow="0">
            <root>
                <mxCell id="0"/>
                <mxCell id="1" parent="0"/>
                <mxCell id="gWhWabP_F0V6RctqcrPL-3" value="" style="group" parent="1" vertex="1" connectable="0">
                    <mxGeometry x="-2228" y="80" width="2120" height="980" as="geometry"/>
                </mxCell>
                <mxCell id="gWhWabP_F0V6RctqcrPL-1" value="" style="group" parent="gWhWabP_F0V6RctqcrPL-3" vertex="1" connectable="0">
                    <mxGeometry width="2120" height="980" as="geometry"/>
                </mxCell>
                <mxCell id="nW9fMLdY71jYZeTw1rtJ-126" value="Customer wants to purchase groceries online" style="rounded=0;whiteSpace=wrap;html=1;labelBackgroundColor=none;strokeWidth=1;fillColor=#d5e8d4;fontSize=30;strokeColor=#808080;" parent="gWhWabP_F0V6RctqcrPL-1" vertex="1">
                    <mxGeometry width="2120" height="60" as="geometry"/>
                </mxCell>
                <mxCell id="nW9fMLdY71jYZeTw1rtJ-128" value="" style="rounded=0;whiteSpace=wrap;html=1;labelBackgroundColor=none;strokeWidth=1;fontSize=30;fillColor=none;strokeColor=#808080;" parent="gWhWabP_F0V6RctqcrPL-1" vertex="1">
                    <mxGeometry y="60" width="2120" height="260" as="geometry"/>
                </mxCell>
                <mxCell id="nW9fMLdY71jYZeTw1rtJ-129" value="" style="rounded=0;whiteSpace=wrap;html=1;labelBackgroundColor=none;strokeWidth=1;fontSize=30;fillColor=none;strokeColor=#808080;" parent="gWhWabP_F0V6RctqcrPL-1" vertex="1">
                    <mxGeometry y="320" width="2120" height="240" as="geometry"/>
                </mxCell>
                <mxCell id="nW9fMLdY71jYZeTw1rtJ-130" value="" style="rounded=0;whiteSpace=wrap;html=1;labelBackgroundColor=none;strokeWidth=1;fontSize=30;fillColor=none;strokeColor=#808080;" parent="gWhWabP_F0V6RctqcrPL-1" vertex="1">
                    <mxGeometry y="560" width="2120" height="420" as="geometry"/>
                </mxCell>
                <mxCell id="nW9fMLdY71jYZeTw1rtJ-81" value="&lt;b&gt;&lt;font style=&quot;font-size: 20px&quot;&gt;Activities&lt;/font&gt;&lt;/b&gt;" style="text;html=1;strokeColor=none;fillColor=none;align=center;verticalAlign=middle;whiteSpace=wrap;rounded=0;" parent="gWhWabP_F0V6RctqcrPL-3" vertex="1">
                    <mxGeometry x="40" y="160" width="40" height="20" as="geometry"/>
                </mxCell>
                <mxCell id="nW9fMLdY71jYZeTw1rtJ-82" value="&lt;b&gt;&lt;font style=&quot;font-size: 20px&quot;&gt;Tasks&lt;/font&gt;&lt;/b&gt;" style="text;html=1;strokeColor=none;fillColor=none;align=center;verticalAlign=middle;whiteSpace=wrap;rounded=0;" parent="gWhWabP_F0V6RctqcrPL-3" vertex="1">
                    <mxGeometry x="20" y="360" width="40" height="20" as="geometry"/>
                </mxCell>
                <mxCell id="nW9fMLdY71jYZeTw1rtJ-83" value="&lt;b&gt;&lt;font style=&quot;font-size: 20px&quot;&gt;Sub-tasks&lt;/font&gt;&lt;/b&gt;" style="text;html=1;strokeColor=none;fillColor=none;align=center;verticalAlign=middle;whiteSpace=wrap;rounded=0;" parent="gWhWabP_F0V6RctqcrPL-3" vertex="1">
                    <mxGeometry y="630" width="130" height="20" as="geometry"/>
                </mxCell>
                <mxCell id="nW9fMLdY71jYZeTw1rtJ-51" style="rounded=0;orthogonalLoop=1;jettySize=auto;html=1;dashed=1;dashPattern=1 4;edgeStyle=orthogonalEdgeStyle;" parent="1" source="nW9fMLdY71jYZeTw1rtJ-47" target="nW9fMLdY71jYZeTw1rtJ-45" edge="1">
                    <mxGeometry relative="1" as="geometry">
                        <Array as="points">
                            <mxPoint x="-1488" y="410"/>
                            <mxPoint x="-1418" y="410"/>
                            <mxPoint x="-1418" y="760"/>
                        </Array>
                    </mxGeometry>
                </mxCell>
                <mxCell id="nW9fMLdY71jYZeTw1rtJ-52" style="edgeStyle=orthogonalEdgeStyle;rounded=0;orthogonalLoop=1;jettySize=auto;html=1;dashed=1;dashPattern=1 4;" parent="1" source="nW9fMLdY71jYZeTw1rtJ-47" target="nW9fMLdY71jYZeTw1rtJ-36" edge="1">
                    <mxGeometry relative="1" as="geometry">
                        <Array as="points">
                            <mxPoint x="-1488" y="410"/>
                            <mxPoint x="-1418" y="410"/>
                            <mxPoint x="-1418" y="650"/>
                            <mxPoint x="-1248" y="650"/>
                            <mxPoint x="-1248" y="900"/>
                        </Array>
                    </mxGeometry>
                </mxCell>
                <mxCell id="nW9fMLdY71jYZeTw1rtJ-54" style="edgeStyle=orthogonalEdgeStyle;rounded=0;orthogonalLoop=1;jettySize=auto;html=1;dashed=1;dashPattern=1 4;" parent="1" source="nW9fMLdY71jYZeTw1rtJ-47" target="nW9fMLdY71jYZeTw1rtJ-53" edge="1">
                    <mxGeometry relative="1" as="geometry">
                        <Array as="points">
                            <mxPoint x="-1488" y="180"/>
                            <mxPoint x="-1168" y="180"/>
                        </Array>
                    </mxGeometry>
                </mxCell>
                <mxCell id="nW9fMLdY71jYZeTw1rtJ-65" style="edgeStyle=orthogonalEdgeStyle;rounded=0;orthogonalLoop=1;jettySize=auto;html=1;dashed=1;dashPattern=1 4;" parent="1" source="nW9fMLdY71jYZeTw1rtJ-47" target="nW9fMLdY71jYZeTw1rtJ-37" edge="1">
                    <mxGeometry relative="1" as="geometry">
                        <Array as="points">
                            <mxPoint x="-1488" y="180"/>
                            <mxPoint x="-768" y="180"/>
                        </Array>
                    </mxGeometry>
                </mxCell>
                <mxCell id="nW9fMLdY71jYZeTw1rtJ-66" style="edgeStyle=orthogonalEdgeStyle;rounded=0;orthogonalLoop=1;jettySize=auto;html=1;dashed=1;dashPattern=1 4;" parent="1" source="nW9fMLdY71jYZeTw1rtJ-47" target="nW9fMLdY71jYZeTw1rtJ-41" edge="1">
                    <mxGeometry relative="1" as="geometry">
                        <Array as="points">
                            <mxPoint x="-1488" y="180"/>
                            <mxPoint x="-368" y="180"/>
                        </Array>
                    </mxGeometry>
                </mxCell>
                <mxCell id="nW9fMLdY71jYZeTw1rtJ-67" style="edgeStyle=orthogonalEdgeStyle;rounded=0;orthogonalLoop=1;jettySize=auto;html=1;dashed=1;dashPattern=1 4;" parent="1" source="nW9fMLdY71jYZeTw1rtJ-47" target="nW9fMLdY71jYZeTw1rtJ-60" edge="1">
                    <mxGeometry relative="1" as="geometry">
                        <Array as="points">
                            <mxPoint x="-1488" y="180"/>
                            <mxPoint x="-208" y="180"/>
                        </Array>
                    </mxGeometry>
                </mxCell>
                <mxCell id="nW9fMLdY71jYZeTw1rtJ-21" value="search for products" style="rounded=1;whiteSpace=wrap;html=1;fillColor=#dae8fc;strokeColor=#6c8ebf;" parent="1" vertex="1">
                    <mxGeometry x="-1708" y="220" width="120" height="60" as="geometry"/>
                </mxCell>
                <mxCell id="nW9fMLdY71jYZeTw1rtJ-22" value="preview item photo" style="rounded=1;whiteSpace=wrap;html=1;fillColor=#fff2cc;strokeColor=#d6b656;fontStyle=2" parent="1" vertex="1">
                    <mxGeometry x="-1868" y="490" width="120" height="60" as="geometry"/>
                </mxCell>
                <mxCell id="nW9fMLdY71jYZeTw1rtJ-23" value="read product description" style="rounded=1;whiteSpace=wrap;html=1;fillColor=#d5e8d4;strokeColor=#82b366;" parent="1" vertex="1">
                    <mxGeometry x="-1868" y="420" width="120" height="60" as="geometry"/>
                </mxCell>
                <mxCell id="nW9fMLdY71jYZeTw1rtJ-24" value="view individual product" style="rounded=1;whiteSpace=wrap;html=1;fillColor=#dae8fc;strokeColor=#6c8ebf;" parent="1" vertex="1">
                    <mxGeometry x="-1868" y="220" width="120" height="60" as="geometry"/>
                </mxCell>
                <mxCell id="nW9fMLdY71jYZeTw1rtJ-26" value="see a list of ranked search results" style="rounded=1;whiteSpace=wrap;html=1;fillColor=#d5e8d4;strokeColor=#82b366;" parent="1" vertex="1">
                    <mxGeometry x="-1708" y="420" width="120" height="60" as="geometry"/>
                </mxCell>
                <mxCell id="nW9fMLdY71jYZeTw1rtJ-28" value="read reviews" style="rounded=1;whiteSpace=wrap;html=1;fillColor=#f8cecc;strokeColor=#b85450;fontStyle=2" parent="1" vertex="1">
                    <mxGeometry x="-1878" y="660" width="120" height="60" as="geometry"/>
                </mxCell>
                <mxCell id="nW9fMLdY71jYZeTw1rtJ-70" style="edgeStyle=orthogonalEdgeStyle;rounded=0;orthogonalLoop=1;jettySize=auto;html=1;dashed=1;dashPattern=1 4;" parent="1" source="nW9fMLdY71jYZeTw1rtJ-29" target="nW9fMLdY71jYZeTw1rtJ-53" edge="1">
                    <mxGeometry relative="1" as="geometry">
                        <Array as="points">
                            <mxPoint x="-1248" y="230"/>
                            <mxPoint x="-1248" y="230"/>
                        </Array>
                    </mxGeometry>
                </mxCell>
                <mxCell id="nW9fMLdY71jYZeTw1rtJ-29" value="add product to shopping cart" style="rounded=1;whiteSpace=wrap;html=1;fillColor=#dae8fc;strokeColor=#6c8ebf;" parent="1" vertex="1">
                    <mxGeometry x="-1388" y="220" width="120" height="60" as="geometry"/>
                </mxCell>
                <mxCell id="nW9fMLdY71jYZeTw1rtJ-30" value="change product quantities" style="rounded=1;whiteSpace=wrap;html=1;fillColor=#d5e8d4;strokeColor=#82b366;" parent="1" vertex="1">
                    <mxGeometry x="-1388" y="490" width="120" height="60" as="geometry"/>
                </mxCell>
                <mxCell id="nW9fMLdY71jYZeTw1rtJ-31" value="delete product from shopping cart" style="rounded=1;whiteSpace=wrap;html=1;fillColor=#dae8fc;strokeColor=#6c8ebf;" parent="1" vertex="1">
                    <mxGeometry x="-1388" y="280" width="120" height="60" as="geometry"/>
                </mxCell>
                <mxCell id="nW9fMLdY71jYZeTw1rtJ-32" value="add a note to packer about this product" style="rounded=1;whiteSpace=wrap;html=1;fillColor=#f8cecc;strokeColor=#b85450;fontStyle=2" parent="1" vertex="1">
                    <mxGeometry x="-1398" y="660" width="120" height="60" as="geometry"/>
                </mxCell>
                <mxCell id="nW9fMLdY71jYZeTw1rtJ-34" value="get delivery cost quote" style="rounded=1;whiteSpace=wrap;html=1;fillColor=#d5e8d4;strokeColor=#82b366;" parent="1" vertex="1">
                    <mxGeometry x="-1108" y="420" width="120" height="60" as="geometry"/>
                </mxCell>
                <mxCell id="nW9fMLdY71jYZeTw1rtJ-35" value="check postcode for delivery area" style="rounded=1;whiteSpace=wrap;html=1;fillColor=#d5e8d4;strokeColor=#82b366;" parent="1" vertex="1">
                    <mxGeometry x="-1228" y="420" width="120" height="60" as="geometry"/>
                </mxCell>
                <mxCell id="nW9fMLdY71jYZeTw1rtJ-36" value="save details to profile for future orders" style="rounded=1;whiteSpace=wrap;html=1;fillColor=#f8cecc;strokeColor=#b85450;fontStyle=2" parent="1" vertex="1">
                    <mxGeometry x="-1238" y="870" width="120" height="60" as="geometry"/>
                </mxCell>
                <mxCell id="nW9fMLdY71jYZeTw1rtJ-72" style="edgeStyle=orthogonalEdgeStyle;rounded=0;orthogonalLoop=1;jettySize=auto;html=1;dashed=1;dashPattern=1 4;" parent="1" source="nW9fMLdY71jYZeTw1rtJ-37" target="nW9fMLdY71jYZeTw1rtJ-41" edge="1">
                    <mxGeometry relative="1" as="geometry">
                        <Array as="points">
                            <mxPoint x="-568" y="230"/>
                            <mxPoint x="-568" y="230"/>
                        </Array>
                    </mxGeometry>
                </mxCell>
                <mxCell id="nW9fMLdY71jYZeTw1rtJ-37" value="pay for order" style="rounded=1;whiteSpace=wrap;html=1;fillColor=#dae8fc;strokeColor=#6c8ebf;" parent="1" vertex="1">
                    <mxGeometry x="-828" y="220" width="120" height="60" as="geometry"/>
                </mxCell>
                <mxCell id="nW9fMLdY71jYZeTw1rtJ-38" value="select payment method" style="rounded=1;whiteSpace=wrap;html=1;fillColor=#d5e8d4;strokeColor=#82b366;" parent="1" vertex="1">
                    <mxGeometry x="-828" y="420" width="120" height="60" as="geometry"/>
                </mxCell>
                <mxCell id="nW9fMLdY71jYZeTw1rtJ-39" value="enter payment details" style="rounded=1;whiteSpace=wrap;html=1;fillColor=#d5e8d4;strokeColor=#82b366;" parent="1" vertex="1">
                    <mxGeometry x="-708" y="420" width="120" height="60" as="geometry"/>
                </mxCell>
                <mxCell id="nW9fMLdY71jYZeTw1rtJ-40" value="receive payment confirmation" style="rounded=1;whiteSpace=wrap;html=1;fillColor=#d5e8d4;strokeColor=#82b366;" parent="1" vertex="1">
                    <mxGeometry x="-588" y="420" width="120" height="60" as="geometry"/>
                </mxCell>
                <mxCell id="nW9fMLdY71jYZeTw1rtJ-41" value="track order" style="rounded=1;whiteSpace=wrap;html=1;fillColor=#f8cecc;strokeColor=#b85450;fontStyle=2" parent="1" vertex="1">
                    <mxGeometry x="-428" y="220" width="120" height="60" as="geometry"/>
                </mxCell>
                <mxCell id="nW9fMLdY71jYZeTw1rtJ-42" value="use tracking or order number to check delivery status" style="rounded=1;whiteSpace=wrap;html=1;fillColor=#f8cecc;strokeColor=#b85450;fontStyle=2" parent="1" vertex="1">
                    <mxGeometry x="-428" y="420" width="120" height="60" as="geometry"/>
                </mxCell>
                <mxCell id="nW9fMLdY71jYZeTw1rtJ-43" value="select delivery window" style="rounded=1;whiteSpace=wrap;html=1;fillColor=#f8cecc;strokeColor=#b85450;fontStyle=2" parent="1" vertex="1">
                    <mxGeometry x="-1118" y="660" width="120" height="60" as="geometry"/>
                </mxCell>
                <mxCell id="nW9fMLdY71jYZeTw1rtJ-44" value="save details to profile for future orders" style="rounded=1;whiteSpace=wrap;html=1;fillColor=#f8cecc;strokeColor=#b85450;fontStyle=2" parent="1" vertex="1">
                    <mxGeometry x="-838" y="660" width="120" height="60" as="geometry"/>
                </mxCell>
                <mxCell id="nW9fMLdY71jYZeTw1rtJ-45" value="save order to complete later" style="rounded=1;whiteSpace=wrap;html=1;fillColor=#f8cecc;strokeColor=#b85450;fontStyle=2" parent="1" vertex="1">
                    <mxGeometry x="-1398" y="730" width="120" height="60" as="geometry"/>
                </mxCell>
                <UserObject label="create account" link="data:page/id,iSt6Qmezgcpyq-W9V-Go" id="nW9fMLdY71jYZeTw1rtJ-47">
                    <mxCell style="rounded=1;whiteSpace=wrap;html=1;fillColor=#dae8fc;strokeColor=#6c8ebf;" parent="1" vertex="1">
                        <mxGeometry x="-1548" y="220" width="120" height="60" as="geometry"/>
                    </mxCell>
                </UserObject>
                <UserObject label="add delivery address" link="data:page/id,iSt6Qmezgcpyq-W9V-Go" id="nW9fMLdY71jYZeTw1rtJ-48">
                    <mxCell style="rounded=1;whiteSpace=wrap;html=1;fillColor=#d5e8d4;strokeColor=#82b366;" parent="1" vertex="1">
                        <mxGeometry x="-1548" y="420" width="120" height="60" as="geometry"/>
                    </mxCell>
                </UserObject>
                <UserObject label="change delivery address" link="data:page/id,iSt6Qmezgcpyq-W9V-Go" id="nW9fMLdY71jYZeTw1rtJ-49">
                    <mxCell style="rounded=1;whiteSpace=wrap;html=1;fillColor=#f8cecc;strokeColor=#b85450;fontStyle=2" parent="1" vertex="1">
                        <mxGeometry x="-1558" y="660" width="120" height="60" as="geometry"/>
                    </mxCell>
                </UserObject>
                <mxCell id="nW9fMLdY71jYZeTw1rtJ-71" style="edgeStyle=orthogonalEdgeStyle;rounded=0;orthogonalLoop=1;jettySize=auto;html=1;dashed=1;dashPattern=1 4;" parent="1" source="nW9fMLdY71jYZeTw1rtJ-53" target="nW9fMLdY71jYZeTw1rtJ-37" edge="1">
                    <mxGeometry relative="1" as="geometry">
                        <Array as="points">
                            <mxPoint x="-978" y="230"/>
                            <mxPoint x="-978" y="230"/>
                        </Array>
                    </mxGeometry>
                </mxCell>
                <mxCell id="nW9fMLdY71jYZeTw1rtJ-53" value="place order" style="rounded=1;whiteSpace=wrap;html=1;fillColor=#dae8fc;strokeColor=#6c8ebf;" parent="1" vertex="1">
                    <mxGeometry x="-1228" y="220" width="120" height="60" as="geometry"/>
                </mxCell>
                <mxCell id="nW9fMLdY71jYZeTw1rtJ-55" value="review itemised order" style="rounded=1;whiteSpace=wrap;html=1;fillColor=#d5e8d4;strokeColor=#82b366;" parent="1" vertex="1">
                    <mxGeometry x="-1228" y="490" width="120" height="60" as="geometry"/>
                </mxCell>
                <mxCell id="nW9fMLdY71jYZeTw1rtJ-56" value="add note to packer about entire order" style="rounded=1;whiteSpace=wrap;html=1;fillColor=#f8cecc;strokeColor=#b85450;fontStyle=2" parent="1" vertex="1">
                    <mxGeometry x="-1238" y="800" width="120" height="60" as="geometry"/>
                </mxCell>
                <mxCell id="nW9fMLdY71jYZeTw1rtJ-57" value="add note to delivery service" style="rounded=1;whiteSpace=wrap;html=1;fillColor=#f8cecc;strokeColor=#b85450;fontStyle=2" parent="1" vertex="1">
                    <mxGeometry x="-1238" y="730" width="120" height="60" as="geometry"/>
                </mxCell>
                <mxCell id="nW9fMLdY71jYZeTw1rtJ-58" value="agree to pay" style="rounded=1;whiteSpace=wrap;html=1;fillColor=#d5e8d4;strokeColor=#82b366;" parent="1" vertex="1">
                    <mxGeometry x="-988" y="420" width="120" height="60" as="geometry"/>
                </mxCell>
                <mxCell id="nW9fMLdY71jYZeTw1rtJ-59" value="review itemised invoice and payment details" style="rounded=1;whiteSpace=wrap;html=1;fillColor=#f8cecc;strokeColor=#b85450;fontStyle=2" parent="1" vertex="1">
                    <mxGeometry x="-428" y="490" width="120" height="60" as="geometry"/>
                </mxCell>
                <mxCell id="nW9fMLdY71jYZeTw1rtJ-60" value="order favourite products easily" style="rounded=1;whiteSpace=wrap;html=1;fillColor=#f8cecc;strokeColor=#b85450;fontStyle=2" parent="1" vertex="1">
                    <mxGeometry x="-268" y="220" width="120" height="60" as="geometry"/>
                </mxCell>
                <mxCell id="nW9fMLdY71jYZeTw1rtJ-61" value="mark products as favourites" style="rounded=1;whiteSpace=wrap;html=1;fillColor=#f8cecc;strokeColor=#b85450;fontStyle=2" parent="1" vertex="1">
                    <mxGeometry x="-268" y="420" width="120" height="60" as="geometry"/>
                </mxCell>
                <mxCell id="nW9fMLdY71jYZeTw1rtJ-62" value="purchase products from previous orders" style="rounded=1;whiteSpace=wrap;html=1;fillColor=#f8cecc;strokeColor=#b85450;fontStyle=2" parent="1" vertex="1">
                    <mxGeometry x="-268" y="490" width="120" height="60" as="geometry"/>
                </mxCell>
                <mxCell id="nW9fMLdY71jYZeTw1rtJ-63" value="make custom lists of products" style="rounded=1;whiteSpace=wrap;html=1;fillColor=#f8cecc;strokeColor=#b85450;fontStyle=2" parent="1" vertex="1">
                    <mxGeometry x="-278" y="660" width="120" height="60" as="geometry"/>
                </mxCell>
                <mxCell id="nW9fMLdY71jYZeTw1rtJ-64" value="set up recurring purchases" style="rounded=1;whiteSpace=wrap;html=1;fillColor=#f8cecc;strokeColor=#b85450;fontStyle=2" parent="1" vertex="1">
                    <mxGeometry x="-278" y="730" width="120" height="60" as="geometry"/>
                </mxCell>
                <mxCell id="nW9fMLdY71jYZeTw1rtJ-68" value="write review" style="rounded=1;whiteSpace=wrap;html=1;fillColor=#f8cecc;strokeColor=#b85450;fontStyle=2" parent="1" vertex="1">
                    <mxGeometry x="-1878" y="730" width="120" height="60" as="geometry"/>
                </mxCell>
                <mxCell id="nW9fMLdY71jYZeTw1rtJ-69" value="view product categories" style="rounded=1;whiteSpace=wrap;html=1;fillColor=#d5e8d4;strokeColor=#82b366;" parent="1" vertex="1">
                    <mxGeometry x="-2028" y="490" width="120" height="60" as="geometry"/>
                </mxCell>
                <mxCell id="nW9fMLdY71jYZeTw1rtJ-73" value="select delivery method" style="rounded=1;whiteSpace=wrap;html=1;fillColor=#f8cecc;strokeColor=#b85450;fontStyle=2" parent="1" vertex="1">
                    <mxGeometry x="-1238" y="660" width="120" height="60" as="geometry"/>
                </mxCell>
                <mxCell id="nW9fMLdY71jYZeTw1rtJ-74" value="delete delivery address" style="rounded=1;whiteSpace=wrap;html=1;fillColor=#d5e8d4;strokeColor=#82b366;" parent="1" vertex="1">
                    <mxGeometry x="-1548" y="480" width="120" height="60" as="geometry"/>
                </mxCell>
                <mxCell id="nW9fMLdY71jYZeTw1rtJ-75" value="review shopping cart" style="rounded=1;whiteSpace=wrap;html=1;fillColor=#d5e8d4;strokeColor=#82b366;" parent="1" vertex="1">
                    <mxGeometry x="-1388" y="420" width="120" height="60" as="geometry"/>
                </mxCell>
                <mxCell id="nW9fMLdY71jYZeTw1rtJ-76" value="view all products" style="rounded=1;whiteSpace=wrap;html=1;fillColor=#dae8fc;strokeColor=#6c8ebf;" parent="1" vertex="1">
                    <mxGeometry x="-2028" y="220" width="120" height="60" as="geometry"/>
                </mxCell>
                <mxCell id="nW9fMLdY71jYZeTw1rtJ-77" value="see prices of all products" style="rounded=1;whiteSpace=wrap;html=1;fillColor=#d5e8d4;strokeColor=#82b366;" parent="1" vertex="1">
                    <mxGeometry x="-2028" y="420" width="120" height="60" as="geometry"/>
                </mxCell>
                <mxCell id="nW9fMLdY71jYZeTw1rtJ-78" value="see ingredients list" style="rounded=1;whiteSpace=wrap;html=1;fillColor=#f8cecc;strokeColor=#b85450;fontStyle=2" parent="1" vertex="1">
                    <mxGeometry x="-1878" y="800" width="120" height="60" as="geometry"/>
                </mxCell>
                <mxCell id="nW9fMLdY71jYZeTw1rtJ-79" value="see production location" style="rounded=1;whiteSpace=wrap;html=1;fillColor=#f8cecc;strokeColor=#b85450;fontStyle=2" parent="1" vertex="1">
                    <mxGeometry x="-1878" y="930" width="120" height="60" as="geometry"/>
                </mxCell>
                <mxCell id="nW9fMLdY71jYZeTw1rtJ-80" value="see health information" style="rounded=1;whiteSpace=wrap;html=1;fillColor=#f8cecc;strokeColor=#b85450;fontStyle=2" parent="1" vertex="1">
                    <mxGeometry x="-1878" y="860" width="120" height="60" as="geometry"/>
                </mxCell>
                <mxCell id="nW9fMLdY71jYZeTw1rtJ-84" value="red = out of scope for this release" style="rounded=1;whiteSpace=wrap;html=1;fillColor=#f8cecc;strokeColor=#b85450;fontStyle=0" parent="1" vertex="1">
                    <mxGeometry x="-2188" y="1110" width="120" height="60" as="geometry"/>
                </mxCell>
                <mxCell id="nW9fMLdY71jYZeTw1rtJ-90" value="" style="verticalLabelPosition=bottom;verticalAlign=top;html=1;shape=mxgraph.basic.tick;strokeWidth=3;fontColor=#ffffff;fillColor=#006633;strokeColor=#006633;" parent="1" vertex="1">
                    <mxGeometry x="-2050.5" y="260" width="20" height="20" as="geometry"/>
                </mxCell>
                <mxCell id="nW9fMLdY71jYZeTw1rtJ-94" value="yellow = third-party service" style="rounded=1;whiteSpace=wrap;html=1;strokeWidth=1;fillColor=#fff2cc;strokeColor=#d6b656;" parent="1" vertex="1">
                    <mxGeometry x="-2058" y="1110" width="120" height="60" as="geometry"/>
                </mxCell>
                <mxCell id="nW9fMLdY71jYZeTw1rtJ-97" value="Feature complete" style="verticalLabelPosition=bottom;verticalAlign=top;html=1;shape=mxgraph.basic.tick;strokeWidth=3;fillColor=#006633;strokeColor=#006633;fontColor=#006633;" parent="1" vertex="1">
                    <mxGeometry x="-1620" y="1120" width="20" height="20" as="geometry"/>
                </mxCell>
                <mxCell id="nW9fMLdY71jYZeTw1rtJ-98" value="" style="verticalLabelPosition=bottom;verticalAlign=top;html=1;shape=mxgraph.basic.tick;strokeWidth=3;fontColor=#ffffff;fillColor=#006633;strokeColor=#006633;" parent="1" vertex="1">
                    <mxGeometry x="-2048" y="459" width="20" height="20" as="geometry"/>
                </mxCell>
                <mxCell id="nW9fMLdY71jYZeTw1rtJ-99" value="" style="verticalLabelPosition=bottom;verticalAlign=top;html=1;shape=mxgraph.basic.tick;strokeWidth=3;fontColor=#ffffff;fillColor=#006633;strokeColor=#006633;" parent="1" vertex="1">
                    <mxGeometry x="-1888" y="260" width="20" height="20" as="geometry"/>
                </mxCell>
                <mxCell id="nW9fMLdY71jYZeTw1rtJ-104" value="1" style="ellipse;whiteSpace=wrap;html=1;aspect=fixed;fontFamily=Helvetica;fontSize=18;align=center;strokeWidth=1;fillColor=#f5f5f5;strokeColor=#666666;fontColor=#333333;" parent="1" vertex="1">
                    <mxGeometry x="-2053" y="235" width="25" height="25" as="geometry"/>
                </mxCell>
                <mxCell id="nW9fMLdY71jYZeTw1rtJ-105" value="1" style="ellipse;whiteSpace=wrap;html=1;aspect=fixed;fontFamily=Helvetica;fontSize=18;align=center;strokeWidth=1;fillColor=#f5f5f5;strokeColor=#666666;fontColor=#333333;" parent="1" vertex="1">
                    <mxGeometry x="-2053" y="435" width="25" height="25" as="geometry"/>
                </mxCell>
                <mxCell id="nW9fMLdY71jYZeTw1rtJ-106" value="1" style="ellipse;whiteSpace=wrap;html=1;aspect=fixed;fontFamily=Helvetica;fontSize=18;align=center;strokeWidth=1;fillColor=#f5f5f5;strokeColor=#666666;fontColor=#333333;" parent="1" vertex="1">
                    <mxGeometry x="-1893" y="235" width="25" height="25" as="geometry"/>
                </mxCell>
                <mxCell id="nW9fMLdY71jYZeTw1rtJ-107" value="1" style="ellipse;whiteSpace=wrap;html=1;aspect=fixed;fontFamily=Helvetica;fontSize=18;align=center;strokeWidth=1;fillColor=#f5f5f5;strokeColor=#666666;fontColor=#333333;" parent="1" vertex="1">
                    <mxGeometry x="-1893" y="435" width="25" height="25" as="geometry"/>
                </mxCell>
                <mxCell id="nW9fMLdY71jYZeTw1rtJ-108" value="2" style="ellipse;whiteSpace=wrap;html=1;aspect=fixed;fontFamily=Helvetica;fontSize=18;align=center;strokeWidth=1;fillColor=#f5f5f5;strokeColor=#666666;fontColor=#333333;" parent="1" vertex="1">
                    <mxGeometry x="-1733" y="235" width="25" height="25" as="geometry"/>
                </mxCell>
                <mxCell id="nW9fMLdY71jYZeTw1rtJ-109" value="2" style="ellipse;whiteSpace=wrap;html=1;aspect=fixed;fontFamily=Helvetica;fontSize=18;align=center;strokeWidth=1;fillColor=#f5f5f5;strokeColor=#666666;fontColor=#333333;" parent="1" vertex="1">
                    <mxGeometry x="-2055.5" y="507.5" width="25" height="25" as="geometry"/>
                </mxCell>
                <mxCell id="nW9fMLdY71jYZeTw1rtJ-110" value="2" style="ellipse;whiteSpace=wrap;html=1;aspect=fixed;fontFamily=Helvetica;fontSize=18;align=center;strokeWidth=1;fillColor=#f5f5f5;strokeColor=#666666;fontColor=#333333;" parent="1" vertex="1">
                    <mxGeometry x="-1733" y="434" width="25" height="25" as="geometry"/>
                </mxCell>
                <mxCell id="nW9fMLdY71jYZeTw1rtJ-111" value="3" style="ellipse;whiteSpace=wrap;html=1;aspect=fixed;fontFamily=Helvetica;fontSize=18;align=center;strokeWidth=1;fillColor=#f5f5f5;strokeColor=#666666;fontColor=#333333;" parent="1" vertex="1">
                    <mxGeometry x="-1573" y="235" width="25" height="25" as="geometry"/>
                </mxCell>
                <mxCell id="nW9fMLdY71jYZeTw1rtJ-112" value="3" style="ellipse;whiteSpace=wrap;html=1;aspect=fixed;fontFamily=Helvetica;fontSize=18;align=center;strokeWidth=1;fillColor=#f5f5f5;strokeColor=#666666;fontColor=#333333;" parent="1" vertex="1">
                    <mxGeometry x="-1573" y="434" width="25" height="25" as="geometry"/>
                </mxCell>
                <mxCell id="nW9fMLdY71jYZeTw1rtJ-113" value="3" style="ellipse;whiteSpace=wrap;html=1;aspect=fixed;fontFamily=Helvetica;fontSize=18;align=center;strokeWidth=1;fillColor=#f5f5f5;strokeColor=#666666;fontColor=#333333;" parent="1" vertex="1">
                    <mxGeometry x="-1573" y="497.5" width="25" height="25" as="geometry"/>
                </mxCell>
                <mxCell id="nW9fMLdY71jYZeTw1rtJ-114" value="4" style="ellipse;whiteSpace=wrap;html=1;aspect=fixed;fontFamily=Helvetica;fontSize=18;align=center;strokeWidth=1;fillColor=#f5f5f5;strokeColor=#666666;fontColor=#333333;" parent="1" vertex="1">
                    <mxGeometry x="-1413" y="237.5" width="25" height="25" as="geometry"/>
                </mxCell>
                <mxCell id="nW9fMLdY71jYZeTw1rtJ-115" value="4" style="ellipse;whiteSpace=wrap;html=1;aspect=fixed;fontFamily=Helvetica;fontSize=18;align=center;strokeWidth=1;fillColor=#f5f5f5;strokeColor=#666666;fontColor=#333333;" parent="1" vertex="1">
                    <mxGeometry x="-1413" y="297.5" width="25" height="25" as="geometry"/>
                </mxCell>
                <mxCell id="nW9fMLdY71jYZeTw1rtJ-116" value="4" style="ellipse;whiteSpace=wrap;html=1;aspect=fixed;fontFamily=Helvetica;fontSize=18;align=center;strokeWidth=1;fillColor=#f5f5f5;strokeColor=#666666;fontColor=#333333;" parent="1" vertex="1">
                    <mxGeometry x="-1413" y="434" width="25" height="25" as="geometry"/>
                </mxCell>
                <mxCell id="nW9fMLdY71jYZeTw1rtJ-120" value="5" style="ellipse;whiteSpace=wrap;html=1;aspect=fixed;fontFamily=Helvetica;fontSize=18;align=center;strokeWidth=1;fillColor=#f5f5f5;strokeColor=#666666;fontColor=#333333;" parent="1" vertex="1">
                    <mxGeometry x="-1413" y="507.5" width="25" height="25" as="geometry"/>
                </mxCell>
                <mxCell id="nW9fMLdY71jYZeTw1rtJ-124" value="" style="group" parent="1" vertex="1" connectable="0">
                    <mxGeometry x="-1536.75" y="1115" width="77.5" height="50" as="geometry"/>
                </mxCell>
                <mxCell id="nW9fMLdY71jYZeTw1rtJ-122" value="1" style="ellipse;whiteSpace=wrap;html=1;aspect=fixed;fontFamily=Helvetica;fontSize=18;fontColor=#333333;align=center;strokeColor=#666666;strokeWidth=1;fillColor=#f5f5f5;" parent="nW9fMLdY71jYZeTw1rtJ-124" vertex="1">
                    <mxGeometry x="23.75" y="5" width="25" height="25" as="geometry"/>
                </mxCell>
                <mxCell id="nW9fMLdY71jYZeTw1rtJ-123" value="Sprint week" style="text;html=1;strokeColor=none;fillColor=none;align=center;verticalAlign=middle;whiteSpace=wrap;rounded=0;fontSize=12;" parent="nW9fMLdY71jYZeTw1rtJ-124" vertex="1">
                    <mxGeometry y="30" width="77.5" height="20" as="geometry"/>
                </mxCell>
                <mxCell id="nW9fMLdY71jYZeTw1rtJ-131" value="" style="endArrow=classic;html=1;fontSize=30;fontColor=#000000;dashed=1;dashPattern=1 4;" parent="1" edge="1">
                    <mxGeometry width="50" height="50" relative="1" as="geometry">
                        <mxPoint x="-1920" y="1190" as="sourcePoint"/>
                        <mxPoint x="-1690" y="1190" as="targetPoint"/>
                    </mxGeometry>
                </mxCell>
                <mxCell id="nW9fMLdY71jYZeTw1rtJ-132" value="&lt;font style=&quot;font-size: 12px&quot;&gt;dependency&lt;/font&gt;" style="edgeLabel;html=1;align=center;verticalAlign=middle;resizable=0;points=[];fontSize=30;fontColor=#000000;labelBackgroundColor=none;" parent="nW9fMLdY71jYZeTw1rtJ-131" vertex="1" connectable="0">
                    <mxGeometry x="-0.2041" y="4" relative="1" as="geometry">
                        <mxPoint x="17.14" y="4" as="offset"/>
                    </mxGeometry>
                </mxCell>
                <mxCell id="mJ4_hJBow98ez9A4RSFs-1" value="A story map example constructed from basic shapes (General shape library)" style="text;html=1;strokeColor=none;fillColor=none;align=center;verticalAlign=middle;whiteSpace=wrap;rounded=0;fontSize=20;fontStyle=2" parent="1" vertex="1">
                    <mxGeometry x="-1683" y="1250" width="1030" height="20" as="geometry"/>
                </mxCell>
                <mxCell id="mJ4_hJBow98ez9A4RSFs-2" value="" style="group" parent="1" vertex="1" connectable="0">
                    <mxGeometry x="-1920" y="1110" width="240" height="60" as="geometry"/>
                </mxCell>
                <mxCell id="qUOdwgdxU_DM8I0__7e0-1" value="" style="rounded=1;whiteSpace=wrap;html=1;strokeColor=#82b366;strokeWidth=1;fillColor=#d5e8d4;" parent="mJ4_hJBow98ez9A4RSFs-2" vertex="1">
                    <mxGeometry width="120" height="60" as="geometry"/>
                </mxCell>
                <mxCell id="qUOdwgdxU_DM8I0__7e0-2" value="" style="rounded=1;whiteSpace=wrap;html=1;strokeColor=#82b366;strokeWidth=1;fillColor=#d5e8d4;" parent="mJ4_hJBow98ez9A4RSFs-2" vertex="1">
                    <mxGeometry x="120" width="120" height="60" as="geometry"/>
                </mxCell>
                <mxCell id="qUOdwgdxU_DM8I0__7e0-3" value="touching tasks = dependency" style="text;html=1;strokeColor=none;fillColor=none;align=center;verticalAlign=middle;whiteSpace=wrap;rounded=0;" parent="mJ4_hJBow98ez9A4RSFs-2" vertex="1">
                    <mxGeometry y="20" width="240" height="20" as="geometry"/>
                </mxCell>
            </root>
        </mxGraphModel>
    </diagram>
    <diagram id="iSt6Qmezgcpyq-W9V-Go" name="update-account">
        <mxGraphModel dx="1957" dy="1515" grid="1" gridSize="10" guides="1" tooltips="1" connect="1" arrows="1" fold="1" page="1" pageScale="1" pageWidth="1654" pageHeight="1169" math="0" shadow="0">
            <root>
                <mxCell id="OtLjK1SxLUBlRe3WaIa--0"/>
                <mxCell id="OtLjK1SxLUBlRe3WaIa--1" parent="OtLjK1SxLUBlRe3WaIa--0"/>
                <mxCell id="OtLjK1SxLUBlRe3WaIa--2" value="&lt;font style=&quot;font-size: 16px&quot;&gt;Customer wants to use their account&lt;/font&gt;" style="shape=table;childLayout=tableLayout;rowLines=0;columnLines=0;startSize=40;html=1;whiteSpace=wrap;collapsible=0;recursiveResize=0;expand=0;pointerEvents=0;fontStyle=1;align=center;labelBackgroundColor=none;strokeWidth=1;fontSize=30;fillColor=#f5f5f5;strokeColor=#666666;fontColor=#333333;" vertex="1" parent="OtLjK1SxLUBlRe3WaIa--1">
                    <mxGeometry x="27" y="30" width="1600" height="930" as="geometry"/>
                </mxCell>
                <mxCell id="OtLjK1SxLUBlRe3WaIa--3" value="Activities" style="swimlane;horizontal=0;points=[[0,0.5],[1,0.5]];portConstraint=eastwest;startSize=40;html=1;whiteSpace=wrap;collapsible=0;recursiveResize=0;expand=0;pointerEvents=0;fontStyle=1;fillColor=#d5e8d4;strokeColor=#82b366;" vertex="1" parent="OtLjK1SxLUBlRe3WaIa--2">
                    <mxGeometry y="40" width="1600" height="296" as="geometry"/>
                </mxCell>
                <mxCell id="OtLjK1SxLUBlRe3WaIa--25" value="Log in" style="swimlane;connectable=0;startSize=40;html=1;whiteSpace=wrap;collapsible=0;recursiveResize=0;expand=0;pointerEvents=0;fillColor=#f5f5f5;strokeColor=#666666;fontColor=#333333;" vertex="1" parent="OtLjK1SxLUBlRe3WaIa--3">
                    <mxGeometry x="40" width="170" height="296" as="geometry"/>
                </mxCell>
                <mxCell id="OtLjK1SxLUBlRe3WaIa--28" value="Enter username and password" style="rounded=1;whiteSpace=wrap;html=1;labelBackgroundColor=none;strokeWidth=1;fontSize=12;fillColor=#d5e8d4;strokeColor=#82b366;" vertex="1" parent="OtLjK1SxLUBlRe3WaIa--25">
                    <mxGeometry x="20" y="60" width="120" height="60" as="geometry"/>
                </mxCell>
                <mxCell id="OtLjK1SxLUBlRe3WaIa--4" value="Create a new account" style="swimlane;connectable=0;startSize=40;html=1;whiteSpace=wrap;collapsible=0;recursiveResize=0;expand=0;pointerEvents=0;fillColor=#f5f5f5;strokeColor=#666666;fontColor=#333333;" vertex="1" parent="OtLjK1SxLUBlRe3WaIa--3">
                    <mxGeometry x="210" width="270" height="296" as="geometry"/>
                </mxCell>
                <mxCell id="OtLjK1SxLUBlRe3WaIa--33" value="enter new username (email) and password" style="rounded=1;whiteSpace=wrap;html=1;labelBackgroundColor=none;strokeWidth=1;fontSize=12;fillColor=#d5e8d4;strokeColor=#82b366;" vertex="1" parent="OtLjK1SxLUBlRe3WaIa--4">
                    <mxGeometry x="14" y="60" width="120" height="60" as="geometry"/>
                </mxCell>
                <mxCell id="OtLjK1SxLUBlRe3WaIa--6" value="Update contact details" style="swimlane;connectable=0;startSize=40;html=1;whiteSpace=wrap;collapsible=0;recursiveResize=0;expand=0;pointerEvents=0;fillColor=#f5f5f5;strokeColor=#666666;fontColor=#333333;" vertex="1" parent="OtLjK1SxLUBlRe3WaIa--3">
                    <mxGeometry x="480" width="280" height="296" as="geometry"/>
                </mxCell>
                <mxCell id="OtLjK1SxLUBlRe3WaIa--34" value="Add new delivery address" style="rounded=1;whiteSpace=wrap;html=1;strokeWidth=1;fillColor=#d5e8d4;strokeColor=#82b366;" vertex="1" parent="OtLjK1SxLUBlRe3WaIa--6">
                    <mxGeometry x="18" y="60" width="120" height="60" as="geometry"/>
                </mxCell>
                <mxCell id="OtLjK1SxLUBlRe3WaIa--35" value="Add new phone number" style="rounded=1;whiteSpace=wrap;html=1;strokeWidth=1;fillColor=#d5e8d4;strokeColor=#82b366;" vertex="1" parent="OtLjK1SxLUBlRe3WaIa--6">
                    <mxGeometry x="18" y="130" width="120" height="60" as="geometry"/>
                </mxCell>
                <mxCell id="UWbwYJlnjAnOrRLH9oln-3" value="Update email address (username)" style="rounded=1;whiteSpace=wrap;html=1;strokeWidth=1;fillColor=#d5e8d4;strokeColor=#82b366;" vertex="1" parent="OtLjK1SxLUBlRe3WaIa--6">
                    <mxGeometry x="18" y="200" width="120" height="60" as="geometry"/>
                </mxCell>
                <mxCell id="OtLjK1SxLUBlRe3WaIa--18" value="Update payment details" style="swimlane;connectable=0;startSize=40;html=1;whiteSpace=wrap;collapsible=0;recursiveResize=0;expand=0;pointerEvents=0;fillColor=#f5f5f5;strokeColor=#666666;fontColor=#333333;" vertex="1" parent="OtLjK1SxLUBlRe3WaIa--3">
                    <mxGeometry x="760" width="270" height="296" as="geometry"/>
                </mxCell>
                <mxCell id="OtLjK1SxLUBlRe3WaIa--36" value="Add new payment method" style="rounded=1;whiteSpace=wrap;html=1;strokeWidth=1;fillColor=#d5e8d4;strokeColor=#82b366;" vertex="1" parent="OtLjK1SxLUBlRe3WaIa--18">
                    <mxGeometry x="12" y="60" width="120" height="60" as="geometry"/>
                </mxCell>
                <mxCell id="OtLjK1SxLUBlRe3WaIa--21" value="Review past orders" style="swimlane;connectable=0;startSize=40;html=1;whiteSpace=wrap;collapsible=0;recursiveResize=0;expand=0;pointerEvents=0;fillColor=#f5f5f5;strokeColor=#666666;fontColor=#333333;" vertex="1" parent="OtLjK1SxLUBlRe3WaIa--3">
                    <mxGeometry x="1030" width="150" height="296" as="geometry"/>
                </mxCell>
                <mxCell id="UWbwYJlnjAnOrRLH9oln-14" value="View all past orders" style="rounded=1;whiteSpace=wrap;html=1;strokeWidth=1;fillColor=#d5e8d4;strokeColor=#82b366;" vertex="1" parent="OtLjK1SxLUBlRe3WaIa--21">
                    <mxGeometry x="14" y="50" width="120" height="60" as="geometry"/>
                </mxCell>
                <mxCell id="OtLjK1SxLUBlRe3WaIa--38" value="Delete account" style="swimlane;connectable=0;startSize=40;html=1;whiteSpace=wrap;collapsible=0;recursiveResize=0;expand=0;pointerEvents=0;fillColor=#f5f5f5;strokeColor=#666666;fontColor=#333333;" vertex="1" parent="OtLjK1SxLUBlRe3WaIa--3">
                    <mxGeometry x="1180" width="150" height="296" as="geometry"/>
                </mxCell>
                <mxCell id="UWbwYJlnjAnOrRLH9oln-17" value="Confirm account deletion&amp;nbsp;" style="rounded=1;whiteSpace=wrap;html=1;strokeWidth=1;fillColor=#d5e8d4;strokeColor=#82b366;" vertex="1" parent="OtLjK1SxLUBlRe3WaIa--38">
                    <mxGeometry x="13" y="50" width="120" height="60" as="geometry"/>
                </mxCell>
                <mxCell id="UWbwYJlnjAnOrRLH9oln-0" value="Get help" style="swimlane;connectable=0;startSize=40;html=1;whiteSpace=wrap;collapsible=0;recursiveResize=0;expand=0;pointerEvents=0;fillColor=#f5f5f5;strokeColor=#666666;fontColor=#333333;" vertex="1" parent="OtLjK1SxLUBlRe3WaIa--3">
                    <mxGeometry x="1330" width="270" height="296" as="geometry"/>
                </mxCell>
                <mxCell id="UWbwYJlnjAnOrRLH9oln-20" value="Contact customer support" style="rounded=1;whiteSpace=wrap;html=1;strokeWidth=1;fillColor=#d5e8d4;strokeColor=#82b366;" vertex="1" parent="UWbwYJlnjAnOrRLH9oln-0">
                    <mxGeometry x="11" y="50" width="120" height="60" as="geometry"/>
                </mxCell>
                <mxCell id="UWbwYJlnjAnOrRLH9oln-24" value="Query an order or delivery" style="rounded=1;whiteSpace=wrap;html=1;strokeWidth=1;fillColor=#d5e8d4;strokeColor=#82b366;" vertex="1" parent="UWbwYJlnjAnOrRLH9oln-0">
                    <mxGeometry x="131" y="50" width="120" height="60" as="geometry"/>
                </mxCell>
                <mxCell id="UWbwYJlnjAnOrRLH9oln-28" value="Find information myself" style="rounded=1;whiteSpace=wrap;html=1;strokeWidth=1;fillColor=#d5e8d4;strokeColor=#82b366;" vertex="1" parent="UWbwYJlnjAnOrRLH9oln-0">
                    <mxGeometry x="11" y="118" width="120" height="60" as="geometry"/>
                </mxCell>
                <mxCell id="OtLjK1SxLUBlRe3WaIa--7" value="Tasks" style="swimlane;horizontal=0;points=[[0,0.5],[1,0.5]];portConstraint=eastwest;startSize=40;html=1;whiteSpace=wrap;collapsible=0;recursiveResize=0;expand=0;pointerEvents=0;fillColor=#dae8fc;strokeColor=#6c8ebf;" vertex="1" parent="OtLjK1SxLUBlRe3WaIa--2">
                    <mxGeometry y="336" width="1600" height="298" as="geometry"/>
                </mxCell>
                <mxCell id="OtLjK1SxLUBlRe3WaIa--26" style="swimlane;connectable=0;startSize=0;html=1;whiteSpace=wrap;collapsible=0;recursiveResize=0;expand=0;pointerEvents=0;" vertex="1" parent="OtLjK1SxLUBlRe3WaIa--7">
                    <mxGeometry x="40" width="170" height="298" as="geometry"/>
                </mxCell>
                <mxCell id="OtLjK1SxLUBlRe3WaIa--31" value="Retrieve forgotten password" style="rounded=1;whiteSpace=wrap;html=1;strokeWidth=1;fillColor=#dae8fc;strokeColor=#6c8ebf;" vertex="1" parent="OtLjK1SxLUBlRe3WaIa--26">
                    <mxGeometry x="20" y="14" width="120" height="60" as="geometry"/>
                </mxCell>
                <mxCell id="OtLjK1SxLUBlRe3WaIa--8" value="" style="swimlane;connectable=0;startSize=0;html=1;whiteSpace=wrap;collapsible=0;recursiveResize=0;expand=0;pointerEvents=0;" vertex="1" parent="OtLjK1SxLUBlRe3WaIa--7">
                    <mxGeometry x="210" width="270" height="298" as="geometry"/>
                </mxCell>
                <mxCell id="OtLjK1SxLUBlRe3WaIa--41" value="enter unique username (email)" style="rounded=1;whiteSpace=wrap;html=1;strokeWidth=1;fillColor=#dae8fc;strokeColor=#6c8ebf;" vertex="1" parent="OtLjK1SxLUBlRe3WaIa--8">
                    <mxGeometry x="14" y="14" width="120" height="60" as="geometry"/>
                </mxCell>
                <mxCell id="OtLjK1SxLUBlRe3WaIa--43" value="set two-factor authentication method" style="rounded=1;whiteSpace=wrap;html=1;strokeWidth=1;fillColor=#dae8fc;strokeColor=#6c8ebf;" vertex="1" parent="OtLjK1SxLUBlRe3WaIa--8">
                    <mxGeometry x="134" y="154" width="120" height="60" as="geometry"/>
                </mxCell>
                <mxCell id="OtLjK1SxLUBlRe3WaIa--44" value="set account recovery options" style="rounded=1;whiteSpace=wrap;html=1;strokeWidth=1;fillColor=#dae8fc;strokeColor=#6c8ebf;" vertex="1" parent="OtLjK1SxLUBlRe3WaIa--8">
                    <mxGeometry x="16" y="154" width="120" height="60" as="geometry"/>
                </mxCell>
                <mxCell id="UWbwYJlnjAnOrRLH9oln-11" value="enter password" style="rounded=1;whiteSpace=wrap;html=1;strokeWidth=1;fillColor=#dae8fc;strokeColor=#6c8ebf;" vertex="1" parent="OtLjK1SxLUBlRe3WaIa--8">
                    <mxGeometry x="16" y="84" width="120" height="60" as="geometry"/>
                </mxCell>
                <mxCell id="OtLjK1SxLUBlRe3WaIa--10" value="" style="swimlane;connectable=0;startSize=0;html=1;whiteSpace=wrap;collapsible=0;recursiveResize=0;expand=0;pointerEvents=0;" vertex="1" parent="OtLjK1SxLUBlRe3WaIa--7">
                    <mxGeometry x="480" width="280" height="298" as="geometry"/>
                </mxCell>
                <mxCell id="UWbwYJlnjAnOrRLH9oln-5" value="Delete delivery address" style="rounded=1;whiteSpace=wrap;html=1;strokeWidth=1;fillColor=#dae8fc;strokeColor=#6c8ebf;" vertex="1" parent="OtLjK1SxLUBlRe3WaIa--10">
                    <mxGeometry x="138" y="14" width="120" height="60" as="geometry"/>
                </mxCell>
                <mxCell id="OtLjK1SxLUBlRe3WaIa--37" value="Update delivery address" style="rounded=1;whiteSpace=wrap;html=1;strokeWidth=1;fillColor=#dae8fc;strokeColor=#6c8ebf;" vertex="1" parent="OtLjK1SxLUBlRe3WaIa--10">
                    <mxGeometry x="18" y="14" width="120" height="60" as="geometry"/>
                </mxCell>
                <mxCell id="UWbwYJlnjAnOrRLH9oln-7" value="Update phone number" style="rounded=1;whiteSpace=wrap;html=1;strokeWidth=1;fillColor=#dae8fc;strokeColor=#6c8ebf;" vertex="1" parent="OtLjK1SxLUBlRe3WaIa--10">
                    <mxGeometry x="18" y="84" width="120" height="60" as="geometry"/>
                </mxCell>
                <mxCell id="UWbwYJlnjAnOrRLH9oln-6" value="Delete phone number" style="rounded=1;whiteSpace=wrap;html=1;strokeWidth=1;fillColor=#dae8fc;strokeColor=#6c8ebf;" vertex="1" parent="OtLjK1SxLUBlRe3WaIa--10">
                    <mxGeometry x="135.5" y="84" width="120" height="60" as="geometry"/>
                </mxCell>
                <mxCell id="OtLjK1SxLUBlRe3WaIa--19" style="swimlane;connectable=0;startSize=0;html=1;whiteSpace=wrap;collapsible=0;recursiveResize=0;expand=0;pointerEvents=0;" vertex="1" parent="OtLjK1SxLUBlRe3WaIa--7">
                    <mxGeometry x="760" width="270" height="298" as="geometry"/>
                </mxCell>
                <mxCell id="UWbwYJlnjAnOrRLH9oln-4" value="Update payment method" style="rounded=1;whiteSpace=wrap;html=1;strokeWidth=1;fillColor=#dae8fc;strokeColor=#6c8ebf;" vertex="1" parent="OtLjK1SxLUBlRe3WaIa--19">
                    <mxGeometry x="12" y="14" width="120" height="60" as="geometry"/>
                </mxCell>
                <mxCell id="UWbwYJlnjAnOrRLH9oln-16" value="Delete payment method" style="rounded=1;whiteSpace=wrap;html=1;strokeWidth=1;fillColor=#dae8fc;strokeColor=#6c8ebf;" vertex="1" parent="OtLjK1SxLUBlRe3WaIa--19">
                    <mxGeometry x="132" y="14" width="120" height="60" as="geometry"/>
                </mxCell>
                <mxCell id="OtLjK1SxLUBlRe3WaIa--22" style="swimlane;connectable=0;startSize=0;html=1;whiteSpace=wrap;collapsible=0;recursiveResize=0;expand=0;pointerEvents=0;" vertex="1" parent="OtLjK1SxLUBlRe3WaIa--7">
                    <mxGeometry x="1030" width="150" height="298" as="geometry"/>
                </mxCell>
                <mxCell id="UWbwYJlnjAnOrRLH9oln-15" value="View itemised individual past order" style="rounded=1;whiteSpace=wrap;html=1;strokeWidth=1;fillColor=#dae8fc;strokeColor=#6c8ebf;" vertex="1" parent="OtLjK1SxLUBlRe3WaIa--22">
                    <mxGeometry x="14" y="14" width="120" height="60" as="geometry"/>
                </mxCell>
                <mxCell id="OtLjK1SxLUBlRe3WaIa--39" style="swimlane;connectable=0;startSize=0;html=1;whiteSpace=wrap;collapsible=0;recursiveResize=0;expand=0;pointerEvents=0;" vertex="1" parent="OtLjK1SxLUBlRe3WaIa--7">
                    <mxGeometry x="1180" width="150" height="298" as="geometry"/>
                </mxCell>
                <mxCell id="UWbwYJlnjAnOrRLH9oln-18" value="Receive account deletion confirmation request by email" style="rounded=1;whiteSpace=wrap;html=1;strokeWidth=1;fillColor=#dae8fc;strokeColor=#6c8ebf;" vertex="1" parent="OtLjK1SxLUBlRe3WaIa--39">
                    <mxGeometry x="13" y="14" width="120" height="60" as="geometry"/>
                </mxCell>
                <mxCell id="UWbwYJlnjAnOrRLH9oln-19" value="Receive account deletion confirmation" style="rounded=1;whiteSpace=wrap;html=1;strokeWidth=1;fillColor=#dae8fc;strokeColor=#6c8ebf;" vertex="1" parent="OtLjK1SxLUBlRe3WaIa--39">
                    <mxGeometry x="13" y="84" width="120" height="60" as="geometry"/>
                </mxCell>
                <mxCell id="UWbwYJlnjAnOrRLH9oln-1" style="swimlane;connectable=0;startSize=0;html=1;whiteSpace=wrap;collapsible=0;recursiveResize=0;expand=0;pointerEvents=0;" vertex="1" parent="OtLjK1SxLUBlRe3WaIa--7">
                    <mxGeometry x="1330" width="270" height="298" as="geometry"/>
                </mxCell>
                <mxCell id="UWbwYJlnjAnOrRLH9oln-21" value="Read FAQs" style="rounded=1;whiteSpace=wrap;html=1;strokeWidth=1;fillColor=#dae8fc;strokeColor=#6c8ebf;" vertex="1" parent="UWbwYJlnjAnOrRLH9oln-1">
                    <mxGeometry x="11" y="14" width="120" height="60" as="geometry"/>
                </mxCell>
                <mxCell id="UWbwYJlnjAnOrRLH9oln-23" value="Read legal and privacy agreements" style="rounded=1;whiteSpace=wrap;html=1;strokeWidth=1;fillColor=#dae8fc;strokeColor=#6c8ebf;" vertex="1" parent="UWbwYJlnjAnOrRLH9oln-1">
                    <mxGeometry x="11" y="84" width="120" height="60" as="geometry"/>
                </mxCell>
                <mxCell id="UWbwYJlnjAnOrRLH9oln-27" value="Learn about ordering and delivery" style="rounded=1;whiteSpace=wrap;html=1;strokeWidth=1;fillColor=#dae8fc;strokeColor=#6c8ebf;" vertex="1" parent="UWbwYJlnjAnOrRLH9oln-1">
                    <mxGeometry x="11" y="154" width="120" height="60" as="geometry"/>
                </mxCell>
                <mxCell id="UWbwYJlnjAnOrRLH9oln-26" value="Learn more about products" style="rounded=1;whiteSpace=wrap;html=1;strokeWidth=1;fillColor=#dae8fc;strokeColor=#6c8ebf;" vertex="1" parent="UWbwYJlnjAnOrRLH9oln-1">
                    <mxGeometry x="11" y="224" width="120" height="60" as="geometry"/>
                </mxCell>
                <mxCell id="OtLjK1SxLUBlRe3WaIa--11" value="Sub-tasks" style="swimlane;horizontal=0;points=[[0,0.5],[1,0.5]];portConstraint=eastwest;startSize=40;html=1;whiteSpace=wrap;collapsible=0;recursiveResize=0;expand=0;pointerEvents=0;fillColor=#e1d5e7;strokeColor=#9673a6;" vertex="1" parent="OtLjK1SxLUBlRe3WaIa--2">
                    <mxGeometry y="634" width="1600" height="296" as="geometry"/>
                </mxCell>
                <mxCell id="OtLjK1SxLUBlRe3WaIa--27" style="swimlane;connectable=0;startSize=0;html=1;whiteSpace=wrap;collapsible=0;recursiveResize=0;expand=0;pointerEvents=0;" vertex="1" parent="OtLjK1SxLUBlRe3WaIa--11">
                    <mxGeometry x="40" width="170" height="296" as="geometry"/>
                </mxCell>
                <mxCell id="UWbwYJlnjAnOrRLH9oln-12" value="Receive password reset link by email" style="rounded=1;whiteSpace=wrap;html=1;strokeWidth=1;fillColor=#e1d5e7;strokeColor=#9673a6;" vertex="1" parent="OtLjK1SxLUBlRe3WaIa--27">
                    <mxGeometry x="20" y="16" width="120" height="60" as="geometry"/>
                </mxCell>
                <mxCell id="OtLjK1SxLUBlRe3WaIa--12" value="" style="swimlane;connectable=0;startSize=0;html=1;whiteSpace=wrap;collapsible=0;recursiveResize=0;expand=0;pointerEvents=0;" vertex="1" parent="OtLjK1SxLUBlRe3WaIa--11">
                    <mxGeometry x="210" width="270" height="296" as="geometry"/>
                </mxCell>
                <mxCell id="OtLjK1SxLUBlRe3WaIa--42" value="ensure secure password" style="rounded=1;whiteSpace=wrap;html=1;strokeWidth=1;fillColor=#e1d5e7;strokeColor=#9673a6;" vertex="1" parent="OtLjK1SxLUBlRe3WaIa--12">
                    <mxGeometry x="14" y="16" width="120" height="60" as="geometry"/>
                </mxCell>
                <mxCell id="OtLjK1SxLUBlRe3WaIa--14" value="" style="swimlane;connectable=0;startSize=0;html=1;whiteSpace=wrap;collapsible=0;recursiveResize=0;expand=0;pointerEvents=0;" vertex="1" parent="OtLjK1SxLUBlRe3WaIa--11">
                    <mxGeometry x="480" width="280" height="296" as="geometry"/>
                </mxCell>
                <mxCell id="OtLjK1SxLUBlRe3WaIa--20" style="swimlane;connectable=0;startSize=0;html=1;whiteSpace=wrap;collapsible=0;recursiveResize=0;expand=0;pointerEvents=0;" vertex="1" parent="OtLjK1SxLUBlRe3WaIa--11">
                    <mxGeometry x="760" width="270" height="296" as="geometry"/>
                </mxCell>
                <mxCell id="OtLjK1SxLUBlRe3WaIa--23" style="swimlane;connectable=0;startSize=0;html=1;whiteSpace=wrap;collapsible=0;recursiveResize=0;expand=0;pointerEvents=0;" vertex="1" parent="OtLjK1SxLUBlRe3WaIa--11">
                    <mxGeometry x="1030" width="150" height="296" as="geometry"/>
                </mxCell>
                <mxCell id="UWbwYJlnjAnOrRLH9oln-31" value="Leave feedback" style="rounded=1;whiteSpace=wrap;html=1;strokeWidth=1;fillColor=#e1d5e7;strokeColor=#9673a6;" vertex="1" parent="OtLjK1SxLUBlRe3WaIa--23">
                    <mxGeometry x="10" y="16" width="120" height="60" as="geometry"/>
                </mxCell>
                <mxCell id="OtLjK1SxLUBlRe3WaIa--40" style="swimlane;connectable=0;startSize=0;html=1;whiteSpace=wrap;collapsible=0;recursiveResize=0;expand=0;pointerEvents=0;" vertex="1" parent="OtLjK1SxLUBlRe3WaIa--11">
                    <mxGeometry x="1180" width="150" height="296" as="geometry"/>
                </mxCell>
                <mxCell id="UWbwYJlnjAnOrRLH9oln-2" style="swimlane;connectable=0;startSize=0;html=1;whiteSpace=wrap;collapsible=0;recursiveResize=0;expand=0;pointerEvents=0;" vertex="1" parent="OtLjK1SxLUBlRe3WaIa--11">
                    <mxGeometry x="1330" width="270" height="296" as="geometry"/>
                </mxCell>
                <mxCell id="UWbwYJlnjAnOrRLH9oln-29" value="Read product reviews" style="rounded=1;whiteSpace=wrap;html=1;strokeWidth=1;fillColor=#e1d5e7;strokeColor=#9673a6;" vertex="1" parent="UWbwYJlnjAnOrRLH9oln-2">
                    <mxGeometry x="11" y="16" width="120" height="60" as="geometry"/>
                </mxCell>
                <mxCell id="UWbwYJlnjAnOrRLH9oln-30" value="Communicate with other customers" style="rounded=1;whiteSpace=wrap;html=1;strokeWidth=1;fillColor=#e1d5e7;strokeColor=#9673a6;" vertex="1" parent="UWbwYJlnjAnOrRLH9oln-2">
                    <mxGeometry x="11" y="86" width="120" height="60" as="geometry"/>
                </mxCell>
                <mxCell id="UWbwYJlnjAnOrRLH9oln-10" style="edgeStyle=orthogonalEdgeStyle;rounded=0;orthogonalLoop=1;jettySize=auto;html=1;dashed=1;dashPattern=1 4;fontSize=12;fontColor=#000000;" edge="1" parent="OtLjK1SxLUBlRe3WaIa--2" source="OtLjK1SxLUBlRe3WaIa--41" target="UWbwYJlnjAnOrRLH9oln-3">
                    <mxGeometry relative="1" as="geometry">
                        <Array as="points">
                            <mxPoint x="505" y="320"/>
                            <mxPoint x="901" y="320"/>
                        </Array>
                    </mxGeometry>
                </mxCell>
                <mxCell id="U-jJmerVUzA19QD3KrKk-0" value="A story map example in a cross-functional flowchart shape (Misc shape library)" style="text;html=1;strokeColor=none;fillColor=none;align=center;verticalAlign=middle;whiteSpace=wrap;rounded=0;fontSize=20;fontStyle=2" vertex="1" parent="OtLjK1SxLUBlRe3WaIa--1">
                    <mxGeometry x="312" y="1010" width="1030" height="20" as="geometry"/>
                </mxCell>
            </root>
        </mxGraphModel>
    </diagram>
</mxfile>